<mxfile host="Electron" modified="2024-03-20T10:37:20.574Z" agent="Mozilla/5.0 (Macintosh; Intel Mac OS X 10_15_7) AppleWebKit/537.36 (KHTML, like Gecko) draw.io/24.0.4 Chrome/120.0.6099.109 Electron/28.1.0 Safari/537.36" etag="h79qpg9-45bAogZgiaEd" version="24.0.4" type="device">
  <diagram name="PÃ¡gina-1" id="5oR5NTUJ9PWCenWFxbjm">
    <mxGraphModel dx="980" dy="657" grid="1" gridSize="10" guides="1" tooltips="1" connect="1" arrows="1" fold="1" page="1" pageScale="1" pageWidth="827" pageHeight="1169" math="0" shadow="0">
      <root>
        <mxCell id="0" />
        <mxCell id="1" parent="0" />
        <mxCell id="k1yOGH4irmy1o9pYf3bR-3" value="Arduino" style="swimlane;" parent="1" vertex="1">
          <mxGeometry x="120" y="240" width="160" height="100" as="geometry" />
        </mxCell>
        <mxCell id="k1yOGH4irmy1o9pYf3bR-4" value="Sensor Agent" style="text;html=1;align=center;verticalAlign=middle;resizable=0;points=[];autosize=1;strokeColor=none;fillColor=none;" parent="k1yOGH4irmy1o9pYf3bR-3" vertex="1">
          <mxGeometry x="30" y="50" width="100" height="30" as="geometry" />
        </mxCell>
        <mxCell id="k1yOGH4irmy1o9pYf3bR-5" value="Raspberry PI" style="swimlane;" parent="1" vertex="1">
          <mxGeometry x="120" y="400" width="160" height="100" as="geometry" />
        </mxCell>
        <mxCell id="k1yOGH4irmy1o9pYf3bR-6" value="Camera Agent" style="text;html=1;align=center;verticalAlign=middle;resizable=0;points=[];autosize=1;strokeColor=none;fillColor=none;" parent="k1yOGH4irmy1o9pYf3bR-5" vertex="1">
          <mxGeometry x="30" y="50" width="100" height="30" as="geometry" />
        </mxCell>
        <mxCell id="k1yOGH4irmy1o9pYf3bR-7" value="Android" style="swimlane;" parent="1" vertex="1">
          <mxGeometry x="460" y="330" width="160" height="100" as="geometry" />
        </mxCell>
        <mxCell id="k1yOGH4irmy1o9pYf3bR-8" value="User Agent" style="text;html=1;align=center;verticalAlign=middle;resizable=0;points=[];autosize=1;strokeColor=none;fillColor=none;" parent="k1yOGH4irmy1o9pYf3bR-7" vertex="1">
          <mxGeometry x="40" y="50" width="80" height="30" as="geometry" />
        </mxCell>
        <mxCell id="k1yOGH4irmy1o9pYf3bR-11" value="" style="endArrow=classic;startArrow=classic;html=1;rounded=0;strokeWidth=2;" parent="1" edge="1">
          <mxGeometry width="50" height="50" relative="1" as="geometry">
            <mxPoint x="460" y="380" as="sourcePoint" />
            <mxPoint x="280" y="460" as="targetPoint" />
          </mxGeometry>
        </mxCell>
        <mxCell id="k1yOGH4irmy1o9pYf3bR-14" style="edgeStyle=orthogonalEdgeStyle;rounded=0;orthogonalLoop=1;jettySize=auto;html=1;exitX=0.5;exitY=0;exitDx=0;exitDy=0;entryX=0.5;entryY=0;entryDx=0;entryDy=0;" parent="1" edge="1">
          <mxGeometry relative="1" as="geometry">
            <mxPoint x="482" y="60" as="targetPoint" />
            <mxPoint x="482" y="60" as="sourcePoint" />
          </mxGeometry>
        </mxCell>
        <mxCell id="k1yOGH4irmy1o9pYf3bR-17" value="" style="shape=message;html=1;html=1;outlineConnect=0;labelPosition=center;verticalLabelPosition=bottom;align=center;verticalAlign=top;" parent="1" vertex="1">
          <mxGeometry x="350" y="410" width="40" height="20" as="geometry" />
        </mxCell>
        <mxCell id="sDzidn6xyLXcjzrCZrD3-2" value="" style="endArrow=classic;html=1;rounded=0;strokeWidth=2;entryX=0.5;entryY=1;entryDx=0;entryDy=0;" edge="1" parent="1" source="k1yOGH4irmy1o9pYf3bR-16">
          <mxGeometry width="50" height="50" relative="1" as="geometry">
            <mxPoint x="199.5" y="340" as="sourcePoint" />
            <mxPoint x="200" y="400" as="targetPoint" />
          </mxGeometry>
        </mxCell>
        <mxCell id="sDzidn6xyLXcjzrCZrD3-3" value="" style="endArrow=classic;html=1;rounded=0;strokeWidth=2;entryX=0.5;entryY=1;entryDx=0;entryDy=0;" edge="1" parent="1" target="k1yOGH4irmy1o9pYf3bR-16">
          <mxGeometry width="50" height="50" relative="1" as="geometry">
            <mxPoint x="199.5" y="340" as="sourcePoint" />
            <mxPoint x="200" y="400" as="targetPoint" />
          </mxGeometry>
        </mxCell>
        <mxCell id="k1yOGH4irmy1o9pYf3bR-16" value="" style="shape=message;html=1;html=1;outlineConnect=0;labelPosition=center;verticalLabelPosition=bottom;align=center;verticalAlign=top;" parent="1" vertex="1">
          <mxGeometry x="180" y="360" width="40" height="20" as="geometry" />
        </mxCell>
      </root>
    </mxGraphModel>
  </diagram>
</mxfile>
